<mxfile host="app.diagrams.net" modified="2023-12-08T12:27:25.001Z" agent="Mozilla/5.0 (Windows NT 10.0; Win64; x64; rv:120.0) Gecko/20100101 Firefox/120.0" version="22.1.7" etag="7q_MuBDgSw3ElPBRYQ7_" type="github">
  <diagram name="Page-1" id="XPwZw_FgaktN8qdzVGt2">
    <mxGraphModel>
      <root>
        <mxCell id="0" />
        <mxCell id="1" parent="0" />
      </root>
    </mxGraphModel>
  </diagram>
</mxfile>
